# xmcd
#
# Track frame offsets:
#	150
#	18715
#	35761
#	53918
#	70505
#	90980
#	107777
#	128045
#	160008
#	179557
#	197952
#	215688
#
# Disc length: 3091 seconds
# Revision: 0
# Processed by: cddbd v1.5.2PL0 Copyright (c) Steve Scherf et al.
# Submitted via: dBpowerAMP V12.0
#
DISCID=a90c110c
DTITLE=Oli Brown - Here I Am [RUF 1178]
DYEAR=2012
DGENRE=Blues Rock
TTITLE0=Here I Am
TTITLE1=Thinking About Her
TTITLE2=Manic Bloom
TTITLE3=All We Had To Give
TTITLE4=You Can Only Blame Yourself 
TTITLE5=Start It Again
TTITLE6=Devil In Me
TTITLE7=I Love You More You'll Ever Know
TTITLE8=Remedy
TTITLE9=Mr. Wilson
TTITLE10=Like A Father
TTITLE11=Solid Ground
EXTD=
EXTT0=
EXTT1=
EXTT2=
EXTT3=
EXTT4=
EXTT5=
EXTT6=
EXTT7=
EXTT8=
EXTT9=
EXTT10=
EXTT11=
PLAYORDER=
